<svg width="100" height="100" viewBox="0 0 100 100" fill="none" xmlns="http://www.w3.org/2000/svg">
<rect opacity="0.2" width="100" height="100" fill="black" fill-opacity="0.01"/>
<rect x="36.6667" y="24.6667" width="38" height="38" rx="3.33333" stroke="#54EEFA" stroke-width="2.26866"/>
<rect x="24.6667" y="30" width="44.6667" height="5.33333" fill="black"/>
<rect x="64" y="48" width="5.33333" height="33.3333" fill="black"/>
<rect x="24" y="35.3333" width="40" height="40" rx="3.33333" fill="#30BCED"/>
<g opacity="0.2">
<path d="M44 35.3333H60.6667C62.5076 35.3333 64 36.8257 64 38.6667V72C64 73.8409 62.5076 75.3333 60.6667 75.3333H44V35.3333Z" fill="url(#paint0_linear_15_1061)" style="mix-blend-mode:overlay"/>
</g>
<path fill-rule="evenodd" clip-rule="evenodd" d="M44 45.3333C43.2636 45.3333 42.6667 45.9303 42.6667 46.6667V54H35.3333C34.597 54 34 54.597 34 55.3333C34 56.0697 34.597 56.6667 35.3333 56.6667H42.6667V64C42.6667 64.7364 43.2636 65.3333 44 65.3333C44.7364 65.3333 45.3333 64.7364 45.3333 64V56.6667H52.6667C53.403 56.6667 54 56.0697 54 55.3333C54 54.597 53.403 54 52.6667 54H45.3333V46.6667C45.3333 45.9303 44.7364 45.3333 44 45.3333Z" fill="white"/>
<defs>
<linearGradient id="paint0_linear_15_1061" x1="68.665" y1="57.081" x2="42.8311" y2="39.6163" gradientUnits="userSpaceOnUse">
<stop stop-opacity="0.01"/>
<stop offset="1"/>
</linearGradient>
</defs>
</svg>
