<svg width="75" height="75" viewBox="0 0 75 75" fill="none" xmlns="http://www.w3.org/2000/svg">
<path fill-rule="evenodd" clip-rule="evenodd" d="M37.5 75C58.2107 75 75 58.2107 75 37.5C75 16.7893 58.2107 0 37.5 0C16.7893 0 0 16.7893 0 37.5C0 58.2107 16.7893 75 37.5 75Z" fill="white"/>
<mask id="mask0_0_163" style="mask-type:alpha" maskUnits="userSpaceOnUse" x="0" y="0" width="75" height="75">
<path fill-rule="evenodd" clip-rule="evenodd" d="M37.5 75C58.2107 75 75 58.2107 75 37.5C75 16.7893 58.2107 0 37.5 0C16.7893 0 0 16.7893 0 37.5C0 58.2107 16.7893 75 37.5 75Z" fill="white"/>
</mask>
<g mask="url(#mask0_0_163)">
<path d="M66.5771 -29.3408C45.6646 -29.3408 -23.874 9.08836 -23.874 30.0029C-23.8806 34.0681 0.683584 45.9795 1.96935 49.8359H13.2929V17.9679L37.9092 42.5866L62.5255 17.9679V49.8359H73.849C75.1305 45.9785 91.5228 46.6515 91.5205 42.5866C91.5205 21.6721 58.8217 0 37.9092 0" fill="#FA6800"/>
<path d="M21.424 37.5039V57.5549H5.52391C0.09375 76.7813 24.1067 99.4688 37.7656 99.4688C51.4244 99.4688 87.3867 76.6524 70.0072 57.5549H54.1071V37.5039L43.4065 48.2528L37.7694 53.9114L32.1322 48.2528L21.424 37.5039Z" fill="#4C4C4C"/>
</g>
</svg>
