<svg width="100" height="100" viewBox="0 0 100 100" fill="none" xmlns="http://www.w3.org/2000/svg">
<rect opacity="0.2" width="100" height="100" fill="black" fill-opacity="0.01"/>
<rect x="16.6667" y="36.6667" width="66.6667" height="26.6667" rx="3.33333" fill="#30BCED"/>
<mask id="mask0_15_1059" style="mask-type:alpha" maskUnits="userSpaceOnUse" x="16" y="36" width="68" height="28">
<rect x="16.6667" y="36.6667" width="66.6667" height="26.6667" rx="3.33333" fill="white"/>
</mask>
<g mask="url(#mask0_15_1059)">
<g opacity="0.2">
<path d="M16.6667 50H83.3333V60C83.3333 61.841 81.8409 63.3333 80 63.3333H20C18.159 63.3333 16.6667 61.8409 16.6667 60V50Z" fill="url(#paint0_linear_15_1059)" style="mix-blend-mode:overlay"/>
</g>
<path fill-rule="evenodd" clip-rule="evenodd" d="M60.6667 55.3333C63.6122 55.3333 66 52.9455 66 50C66 47.0545 63.6122 44.6667 60.6667 44.6667C57.7211 44.6667 55.3333 47.0545 55.3333 50C55.3333 52.9455 57.7211 55.3333 60.6667 55.3333Z" fill="#53EEFA"/>
<path fill-rule="evenodd" clip-rule="evenodd" d="M45.3333 55.3333C48.2789 55.3333 50.6667 52.9455 50.6667 50C50.6667 47.0545 48.2789 44.6667 45.3333 44.6667C42.3878 44.6667 40 47.0545 40 50C40 52.9455 42.3878 55.3333 45.3333 55.3333Z" fill="#53EEFA"/>
<path fill-rule="evenodd" clip-rule="evenodd" d="M30 55.3333C32.9455 55.3333 35.3333 52.9455 35.3333 50C35.3333 47.0545 32.9455 44.6667 30 44.6667C27.0545 44.6667 24.6667 47.0545 24.6667 50C24.6667 52.9455 27.0545 55.3333 30 55.3333Z" fill="#53EEFA"/>
<rect x="72.6667" y="42" width="2.66667" height="16" rx="1.33333" fill="white"/>
</g>
<defs>
<linearGradient id="paint0_linear_15_1059" x1="57.3704" y1="65.8328" x2="58.5455" y2="52.1345" gradientUnits="userSpaceOnUse">
<stop stop-color="white" stop-opacity="0.5"/>
<stop offset="1"/>
</linearGradient>
</defs>
</svg>
